<svg width="33" height="33" viewBox="0 0 33 33" fill="none" xmlns="http://www.w3.org/2000/svg">
<path d="M23.2342 27.5534C21.9275 28.8201 20.5009 28.6201 19.1275 28.0201C17.6742 27.4068 16.3409 27.3801 14.8075 28.0201C12.8875 28.8468 11.8742 28.6068 10.7275 27.5534C4.22087 20.8468 5.18087 10.6334 12.5675 10.2601C14.3675 10.3534 15.6209 11.2468 16.6742 11.3268C18.2475 11.0068 19.7542 10.0868 21.4342 10.2068C23.4475 10.3668 24.9675 11.1668 25.9675 12.6068C21.8075 15.1001 22.7942 20.5801 26.6075 22.1134C25.8475 24.1134 24.8609 26.1001 23.2209 27.5668L23.2342 27.5534ZM16.5409 10.1801C16.3409 7.20676 18.7542 4.75343 21.5275 4.51343C21.9142 7.95343 18.4075 10.5134 16.5409 10.1801Z" fill="#0B0B0B"/>
</svg>
