<svg width="33" height="33" viewBox="0 0 33 33" fill="none" xmlns="http://www.w3.org/2000/svg">
<path d="M29.5733 13.9021H28.4993V13.8467H16.4993V19.1801H24.0347C22.9353 22.2847 19.9813 24.5134 16.4993 24.5134C12.0813 24.5134 8.49935 20.9314 8.49935 16.5134C8.49935 12.0954 12.0813 8.51339 16.4993 8.51339C18.5387 8.51339 20.394 9.28272 21.8067 10.5394L25.578 6.76805C23.1967 4.54872 20.0113 3.18005 16.4993 3.18005C9.13602 3.18005 3.16602 9.15005 3.16602 16.5134C3.16602 23.8767 9.13602 29.8467 16.4993 29.8467C23.8627 29.8467 29.8327 23.8767 29.8327 16.5134C29.8327 15.6194 29.7407 14.7467 29.5733 13.9021Z" fill="#FFC107"/>
<path d="M4.70312 10.3074L9.08379 13.5201C10.2691 10.5854 13.1398 8.51339 16.4991 8.51339C18.5385 8.51339 20.3938 9.28272 21.8065 10.5394L25.5778 6.76805C23.1965 4.54872 20.0111 3.18005 16.4991 3.18005C11.3778 3.18005 6.93646 6.07139 4.70312 10.3074Z" fill="#FF3D00"/>
<path d="M16.5009 29.8467C19.9449 29.8467 23.0742 28.5287 25.4402 26.3854L21.3135 22.8934C19.9299 23.9457 18.2392 24.5148 16.5009 24.5134C13.0329 24.5134 10.0882 22.3021 8.97886 19.2161L4.63086 22.5661C6.83753 26.8841 11.3189 29.8467 16.5009 29.8467Z" fill="#4CAF50"/>
<path d="M29.574 13.9021H28.5V13.8468H16.5V19.1801H24.0353C23.5095 20.6577 22.5622 21.9489 21.3107 22.8941L21.3127 22.8928L25.4393 26.3848C25.1473 26.6501 29.8333 23.1801 29.8333 16.5135C29.8333 15.6195 29.7413 14.7468 29.574 13.9021Z" fill="#1976D2"/>
</svg>
